<svg id="Publicdomainvectors.org" xmlns="http://www.w3.org/2000/svg" viewBox="0 0 506.46 506.46"><defs><style>.cls-1{fill:#d8eaf8;}.cls-2{fill:#82983b;}.cls-10,.cls-11,.cls-12,.cls-13,.cls-14,.cls-15,.cls-16,.cls-17,.cls-2,.cls-3,.cls-4,.cls-5,.cls-6,.cls-7,.cls-8,.cls-9{fill-rule:evenodd;}.cls-3{fill:#94ac3c;}.cls-4{fill:#6b7e36;}.cls-5{fill:#a64724;}.cls-6{fill:#783317;}.cls-7{fill:#8a371d;}.cls-8{fill:#622a10;}.cls-9{fill:#ce6128;}.cls-10{fill:#9c4422;}.cls-11{fill:#fcd5cd;}.cls-12{fill:#e8ab9d;}.cls-13{fill:#db9181;}.cls-14{fill:#cd8475;}.cls-15{fill:#eda353;}.cls-16{fill:#cf8432;}.cls-17{fill:#f1bfb3;}</style></defs><circle class="cls-1" cx="301.58" cy="276.59" r="253.23" transform="translate(-155.6 270.9) rotate(-45)"/><path class="cls-2" d="M431.7,498.58l-1.16-5.16c-2.63-11.73,1.49-22.63,10.68-28.25l-5.72.65c-8.92,1-16.25,5.79-20.21,13.18l-3.48-4.68c-8.47-11.42-21.95-18.4-34.87-18.05l3.85,3.53c10,9.21,15.88,21.74,15.8,33.81l-10.07,11.33Z" transform="translate(-48.35 -23.36)"/><path class="cls-2" d="M183.8,500l-1.15-5.15c-2.63-11.73,1.49-22.64,10.67-28.26l-5.71.65c-8.93,1-16.26,5.79-20.21,13.19l-3.48-4.69c-8.47-11.42-21.95-18.4-34.87-18l3.84,3.53c10,9.21,15.89,21.74,15.81,33.81l-2.16-5.42A21.19,21.19,0,0,0,131.31,477l2.12,3.4c5.18,8.33,7.06,17.72,5.2,26Z" transform="translate(-48.35 -23.36)"/><path class="cls-3" d="M291.66,529.82c134,0,243.3-9.06,243.3-20.17s-109.3-20.16-243.3-20.16S48.35,498.55,48.35,509.65,157.65,529.82,291.66,529.82Z" transform="translate(-48.35 -23.36)"/><path class="cls-4" d="M327.63,517.4c76.33,0,138.58-4.6,138.58-10.24S404,496.92,327.63,496.92s-138.58,4.6-138.58,10.24S251.3,517.4,327.63,517.4Z" transform="translate(-48.35 -23.36)"/><path class="cls-5" d="M511.35,199.72A47,47,0,0,0,461,149.37a90,90,0,0,1-87.74-50.66,90.12,90.12,0,0,0-162.32,0,63.26,63.26,0,0,1-61.66,35.6,65.31,65.31,0,0,0-67.9,48.22C41.62,330.92,500.43,347.13,511.35,199.72Z" transform="translate(-48.35 -23.36)"/><path class="cls-6" d="M511.35,199.72a46.94,46.94,0,0,0-1.42-15.43c-81.37,20.27-108.26-17.62-148.41-10.21-33.43,6.17-23.37,38.12-32.27,57.3-10.87,23.44-46.33,45.5-50.24,70.71C389.62,305.88,505.92,273.06,511.35,199.72Z" transform="translate(-48.35 -23.36)"/><path class="cls-7" d="M321.18,194.15c33.36,0,60.4,14.85,60.4,33.18s-27,33.18-60.4,33.18-60.41-14.86-60.41-33.18,27.05-33.18,60.41-33.18Zm190.17,5.57A47,47,0,0,0,461,149.37a89.3,89.3,0,0,1-15.44-.18,33.72,33.72,0,0,0-6.29,19.46c0,21.24,20.49,38.45,45.78,38.45a51.74,51.74,0,0,0,26.25-6.95C511.31,200,511.34,199.87,511.35,199.72Z" transform="translate(-48.35 -23.36)"/><path class="cls-8" d="M336.9,195.28c25.73,3.8,44.68,16.71,44.68,32.05,0,18.32-27,33.18-60.4,33.18a110.14,110.14,0,0,1-13.67-.85c8.8-9.4,17.31-18.73,21.74-28.28,4.8-10.33,4.09-24.38,7.65-36.1Zm173-11c-26,6.48-46.43,7-63.52,5,8.13,10.71,22.39,17.82,38.64,17.82a51.74,51.74,0,0,0,26.25-6.95A46.47,46.47,0,0,0,509.93,184.29Z" transform="translate(-48.35 -23.36)"/><path class="cls-9" d="M346.35,65.93A90.12,90.12,0,0,0,210.94,98.71a63.26,63.26,0,0,1-61.66,35.6,65.31,65.31,0,0,0-67.9,48.22c-10.09,37.69,12,66.83,50.71,87,1.24,0,2.49.07,3.75.07,26.49,0,56-9,84.48-24.32-50.86-61.85,4.75-109.93,61.42-99.41,34.21,6.35,51.83-9.33,60.14-36C346.89,93.72,348.3,78.87,346.35,65.93Z" transform="translate(-48.35 -23.36)"/><path class="cls-10" d="M232.07,70.67a90.09,90.09,0,0,0-21.13,28,63.21,63.21,0,0,1-11.46,16.45,57.92,57.92,0,0,0,16,2.19c21.4,0,38.75-11,38.75-24.51,0-9.79-9.07-18.24-22.18-22.17ZM79.23,206.18c1.65,16.84,10.4,31.54,24.34,44.06,12.55-2.87,21.76-12.36,21.76-23.64,0-13.54-13.29-24.51-29.68-24.51a34.06,34.06,0,0,0-16.42,4.09ZM318.88,77.93c9.24,0,16.72,5,16.72,11.08s-7.48,11.08-16.72,11.08-16.71-5-16.71-11.08S309.65,77.93,318.88,77.93Z" transform="translate(-48.35 -23.36)"/><path class="cls-11" d="M295.21,305.45c73.45,0,133.35-15,133.35-33.45s-59.9-33.44-133.35-33.44-133.35,15-133.35,33.44S221.76,305.45,295.21,305.45Z" transform="translate(-48.35 -23.36)"/><path class="cls-12" d="M295.21,296.52c53.85,0,97.76-11,97.76-24.52s-43.91-24.51-97.76-24.51-97.76,11-97.76,24.51S241.37,296.52,295.21,296.52Z" transform="translate(-48.35 -23.36)"/><path class="cls-13" d="M391.48,267.72A7.38,7.38,0,0,1,393,272c0,3.9-3.62,7.57-10.06,10.84l-77.37-29.11-3.37-3.49,89.31,17.48Zm-55,26.51-29-31.41-6.9,1.89,20.61,30.93c5.28-.36,10.38-.84,15.26-1.41Zm-72.55,1c-5.37-.46-10.53-1-15.43-1.7L283,263.45,279,272l-15.08,23.24Zm-43.15-7.34L286,254.28l1.6-4-85,29.57C206.53,282.81,212.79,285.54,220.78,287.9Z" transform="translate(-48.35 -23.36)"/><path class="cls-11" d="M271.73,248.2l.28,2.15a97.65,97.65,0,0,1-17.76,70.16c-15.7,21.41-1.74,46.76-11.4,71.86-13.9,36.11-30,75.84-.78,99.52a78.07,78.07,0,0,0,99.17,0c29.27-23.68,39.94-65.18,26-101.3a350.23,350.23,0,0,0-44.35-81.33,48.53,48.53,0,0,1-8.84-34.91c.92-7.07,3.81-16.85,5.83-26.07h0c-7.9-.52-16.17-.79-24.71-.79-8.09,0-15.94.24-23.46.71Z" transform="translate(-48.35 -23.36)"/><path class="cls-14" d="M271.73,248.2l.28,2.15a97.65,97.65,0,0,1-17.76,70.16c25.93-29.78,72.6-3.78,95.84,32.2a347.82,347.82,0,0,0-27.16-43.45,48.53,48.53,0,0,1-8.84-34.91c.92-7.07,3.81-16.85,5.83-26.07h0c-7.9-.52-16.17-.79-24.71-.79-8.09,0-15.94.24-23.46.71Z" transform="translate(-48.35 -23.36)"/><path class="cls-15" d="M263.07,60.79C245.8,63.14,232.35,77,229.63,94.24c-4,25.07-23.32,48.7-48.7,48.7H155.84A54.12,54.12,0,0,0,109,170a23,23,0,1,0,39.9,23l20.66-35.78a17.35,17.35,0,0,1,15-8.67,52.34,52.34,0,0,0,45.34-26.18c9.7-16.8,41.63-49.2,61-49.2,25.6,0,7.86-17.27-14-14.3Z" transform="translate(-48.35 -23.36)"/><path class="cls-16" d="M221.44,117.06a54,54,0,0,0,14.4-3.35,160.65,160.65,0,0,1,18.37-19.9c0-.33,0-.65,0-1,0-7.84-5.81-14.82-14.85-19.3a40.65,40.65,0,0,0-9.77,20.7A66,66,0,0,1,221.44,117.06Z" transform="translate(-48.35 -23.36)"/><path class="cls-17" d="M225.7,456.84c.18,13.42,4.6,25.54,16.37,35.05a78.07,78.07,0,0,0,99.17,0c29.27-23.68,39.94-65.18,26-101.3q-3.76-9.79-8.09-19.3l3.56,18a73.54,73.54,0,0,1-120.56,69.6A14.82,14.82,0,0,0,225.7,456.84Z" transform="translate(-48.35 -23.36)"/></svg>